<svg version="1.2" xmlns="http://www.w3.org/2000/svg" viewBox="0 0 457 457" width="457" height="457"><style>.a{fill:#0a0a0a}.b{fill:#a8a8a8}</style><path fill-rule="evenodd" class="a" d="m228.5 457c-126.4 0-228.5-102.1-228.5-228.5 0-126.4 102.1-228.5 228.5-228.5 126.4 0 228.5 102.1 228.5 228.5 0 126.4-102.1 228.5-228.5 228.5z"/><path class="b" d="m271.1 189.3c0 22.3-14.6 36.3-38.2 36.3h-31.7v-73.5c0 0 11-2 32.7-2 28.7 0 37.2 13.7 37.2 39.2zm70-2.3c0-48.7-25.2-76.1-116.3-76.1-41.7 0-92.6 3.2-92.6 3.2v228.9h69v-78.8h28.7c72.9 0 111.2-19.6 111.2-77.2z"/></svg>