<svg version="1.2" xmlns="http://www.w3.org/2000/svg" viewBox="0 0 457 457" width="457" height="457"><style>.a{fill:#0a0a0a}.b{fill:#fb495e}</style><path fill-rule="evenodd" class="a" d="m228.5 457c-126.4 0-228.5-102.1-228.5-228.5 0-126.4 102.1-228.5 228.5-228.5 126.4 0 228.5 102.1 228.5 228.5 0 126.4-102.1 228.5-228.5 228.5z"/><path class="b" d="m335.8 274c0-48.7-37-64.7-91.6-71.3-35.8-4.2-44.9-8.8-44.9-29.7 0-16.7 18.2-23.6 50.6-23.6 19.9 0 56.9 2.3 76.2 4.9v-38.5c-16.5-2.7-49.5-5-70.5-5-87 0-135.4 17.4-135.4 65.8 0 38.2 25 58.2 88.2 65.7 30.7 3.6 48.3 11.1 48.3 35 0 20.9-22.7 28.4-58 28.4-22.2 0-57.4-2.6-75.1-5.2v38.9c19.4 2.9 55.8 4.9 80.8 4.9 75.6 0 131.4-8.8 131.4-70.3z"/></svg>